<svg xmlns="http://www.w3.org/2000/svg" xmlns:xlink="http://www.w3.org/1999/xlink" width="960.134" height="284.13" viewBox="0 0 960.134 284.13">
  <defs>
    <clipPath id="clip-path">
      <rect width="960.134" height="284.13" fill="none"/>
    </clipPath>
  </defs>
  <g id="Repeat_Grid_3" data-name="Repeat Grid 3" opacity="0.082" clip-path="url(#clip-path)">
    <g id="Group_204" data-name="Group 204" transform="translate(1799.28 -819.252)">
      <circle id="Ellipse_2690" data-name="Ellipse 2690" cx="3.248" cy="3.248" r="3.248" transform="translate(-1799.28 819.252)"/>
      <circle id="Ellipse_2691" data-name="Ellipse 2691" cx="3.248" cy="3.248" r="3.248" transform="translate(-1765.016 819.252)"/>
      <circle id="Ellipse_2692" data-name="Ellipse 2692" cx="3.248" cy="3.248" r="3.248" transform="translate(-1730.753 819.252)"/>
      <circle id="Ellipse_2693" data-name="Ellipse 2693" cx="3.248" cy="3.248" r="3.248" transform="translate(-1696.49 819.252)"/>
      <circle id="Ellipse_2694" data-name="Ellipse 2694" cx="3.248" cy="3.248" r="3.248" transform="translate(-1662.226 819.252)"/>
      <circle id="Ellipse_2695" data-name="Ellipse 2695" cx="3.248" cy="3.248" r="3.248" transform="translate(-1627.963 819.252)"/>
      <circle id="Ellipse_2696" data-name="Ellipse 2696" cx="3.248" cy="3.248" r="3.248" transform="translate(-1593.699 819.252)"/>
      <circle id="Ellipse_2697" data-name="Ellipse 2697" cx="3.248" cy="3.248" r="3.248" transform="translate(-1559.436 819.252)"/>
      <circle id="Ellipse_2698" data-name="Ellipse 2698" cx="3.248" cy="3.248" r="3.248" transform="translate(-1525.172 819.252)"/>
      <circle id="Ellipse_2699" data-name="Ellipse 2699" cx="3.248" cy="3.248" r="3.248" transform="translate(-1490.909 819.252)"/>
      <circle id="Ellipse_2700" data-name="Ellipse 2700" cx="3.248" cy="3.248" r="3.248" transform="translate(-1456.646 819.252)"/>
      <circle id="Ellipse_2701" data-name="Ellipse 2701" cx="3.248" cy="3.248" r="3.248" transform="translate(-1422.382 819.252)"/>
      <circle id="Ellipse_2702" data-name="Ellipse 2702" cx="3.248" cy="3.248" r="3.248" transform="translate(-1388.119 819.252)"/>
      <circle id="Ellipse_2703" data-name="Ellipse 2703" cx="3.248" cy="3.248" r="3.248" transform="translate(-1353.855 819.252)"/>
      <circle id="Ellipse_2704" data-name="Ellipse 2704" cx="3.248" cy="3.248" r="3.248" transform="translate(-1319.592 819.252)"/>
      <circle id="Ellipse_2705" data-name="Ellipse 2705" cx="3.248" cy="3.248" r="3.248" transform="translate(-1285.329 819.252)"/>
      <circle id="Ellipse_2706" data-name="Ellipse 2706" cx="3.248" cy="3.248" r="3.248" transform="translate(-1251.065 819.252)"/>
      <circle id="Ellipse_2707" data-name="Ellipse 2707" cx="3.248" cy="3.248" r="3.248" transform="translate(-1216.802 819.252)"/>
      <circle id="Ellipse_2708" data-name="Ellipse 2708" cx="3.248" cy="3.248" r="3.248" transform="translate(-1182.538 819.252)"/>
      <circle id="Ellipse_2709" data-name="Ellipse 2709" cx="3.248" cy="3.248" r="3.248" transform="translate(-1148.275 819.252)"/>
      <circle id="Ellipse_2710" data-name="Ellipse 2710" cx="3.248" cy="3.248" r="3.248" transform="translate(-1114.012 819.252)"/>
      <circle id="Ellipse_2711" data-name="Ellipse 2711" cx="3.248" cy="3.248" r="3.248" transform="translate(-1079.748 819.252)"/>
      <circle id="Ellipse_2712" data-name="Ellipse 2712" cx="3.248" cy="3.248" r="3.248" transform="translate(-1045.485 819.252)"/>
      <circle id="Ellipse_2713" data-name="Ellipse 2713" cx="3.248" cy="3.248" r="3.248" transform="translate(-1011.221 819.252)"/>
      <circle id="Ellipse_2714" data-name="Ellipse 2714" cx="3.248" cy="3.248" r="3.248" transform="translate(-976.958 819.252)"/>
      <circle id="Ellipse_2715" data-name="Ellipse 2715" cx="3.248" cy="3.248" r="3.248" transform="translate(-942.695 819.252)"/>
      <circle id="Ellipse_2716" data-name="Ellipse 2716" cx="3.248" cy="3.248" r="3.248" transform="translate(-908.431 819.252)"/>
      <circle id="Ellipse_2717" data-name="Ellipse 2717" cx="3.248" cy="3.248" r="3.248" transform="translate(-874.168 819.252)"/>
      <circle id="Ellipse_2718" data-name="Ellipse 2718" cx="3.248" cy="3.248" r="3.248" transform="translate(-839.905 819.252)"/>
      <circle id="Ellipse_2719" data-name="Ellipse 2719" cx="3.248" cy="3.248" r="3.248" transform="translate(-805.641 819.252)"/>
      <circle id="Ellipse_2720" data-name="Ellipse 2720" cx="3.248" cy="3.248" r="3.248" transform="translate(-1799.28 848.016)"/>
      <circle id="Ellipse_2721" data-name="Ellipse 2721" cx="3.248" cy="3.248" r="3.248" transform="translate(-1765.016 848.016)"/>
      <circle id="Ellipse_2722" data-name="Ellipse 2722" cx="3.248" cy="3.248" r="3.248" transform="translate(-1730.753 848.016)"/>
      <circle id="Ellipse_2723" data-name="Ellipse 2723" cx="3.248" cy="3.248" r="3.248" transform="translate(-1696.49 848.016)"/>
      <circle id="Ellipse_2724" data-name="Ellipse 2724" cx="3.248" cy="3.248" r="3.248" transform="translate(-1662.226 848.016)"/>
      <circle id="Ellipse_2725" data-name="Ellipse 2725" cx="3.248" cy="3.248" r="3.248" transform="translate(-1627.963 848.016)"/>
      <circle id="Ellipse_2726" data-name="Ellipse 2726" cx="3.248" cy="3.248" r="3.248" transform="translate(-1593.699 848.016)"/>
      <circle id="Ellipse_2727" data-name="Ellipse 2727" cx="3.248" cy="3.248" r="3.248" transform="translate(-1559.436 848.016)"/>
      <circle id="Ellipse_2728" data-name="Ellipse 2728" cx="3.248" cy="3.248" r="3.248" transform="translate(-1525.172 848.016)"/>
      <circle id="Ellipse_2729" data-name="Ellipse 2729" cx="3.248" cy="3.248" r="3.248" transform="translate(-1490.909 848.016)"/>
      <circle id="Ellipse_2730" data-name="Ellipse 2730" cx="3.248" cy="3.248" r="3.248" transform="translate(-1456.646 848.016)"/>
      <circle id="Ellipse_2731" data-name="Ellipse 2731" cx="3.248" cy="3.248" r="3.248" transform="translate(-1422.382 848.016)"/>
      <circle id="Ellipse_2732" data-name="Ellipse 2732" cx="3.248" cy="3.248" r="3.248" transform="translate(-1388.119 848.016)"/>
      <circle id="Ellipse_2733" data-name="Ellipse 2733" cx="3.248" cy="3.248" r="3.248" transform="translate(-1353.855 848.016)"/>
      <circle id="Ellipse_2734" data-name="Ellipse 2734" cx="3.248" cy="3.248" r="3.248" transform="translate(-1319.592 848.016)"/>
      <circle id="Ellipse_2735" data-name="Ellipse 2735" cx="3.248" cy="3.248" r="3.248" transform="translate(-1285.329 848.016)"/>
      <circle id="Ellipse_2736" data-name="Ellipse 2736" cx="3.248" cy="3.248" r="3.248" transform="translate(-1251.065 848.016)"/>
      <circle id="Ellipse_2737" data-name="Ellipse 2737" cx="3.248" cy="3.248" r="3.248" transform="translate(-1216.802 848.016)"/>
      <circle id="Ellipse_2738" data-name="Ellipse 2738" cx="3.248" cy="3.248" r="3.248" transform="translate(-1182.538 848.016)"/>
      <circle id="Ellipse_2739" data-name="Ellipse 2739" cx="3.248" cy="3.248" r="3.248" transform="translate(-1148.275 848.016)"/>
      <circle id="Ellipse_2740" data-name="Ellipse 2740" cx="3.248" cy="3.248" r="3.248" transform="translate(-1114.012 848.016)"/>
      <circle id="Ellipse_2741" data-name="Ellipse 2741" cx="3.248" cy="3.248" r="3.248" transform="translate(-1079.748 848.016)"/>
      <circle id="Ellipse_2742" data-name="Ellipse 2742" cx="3.248" cy="3.248" r="3.248" transform="translate(-1045.485 848.016)"/>
      <circle id="Ellipse_2743" data-name="Ellipse 2743" cx="3.248" cy="3.248" r="3.248" transform="translate(-1011.221 848.016)"/>
      <circle id="Ellipse_2744" data-name="Ellipse 2744" cx="3.248" cy="3.248" r="3.248" transform="translate(-976.958 848.016)"/>
      <circle id="Ellipse_2745" data-name="Ellipse 2745" cx="3.248" cy="3.248" r="3.248" transform="translate(-942.695 848.016)"/>
      <circle id="Ellipse_2746" data-name="Ellipse 2746" cx="3.248" cy="3.248" r="3.248" transform="translate(-908.431 848.016)"/>
      <circle id="Ellipse_2747" data-name="Ellipse 2747" cx="3.248" cy="3.248" r="3.248" transform="translate(-874.168 848.016)"/>
      <circle id="Ellipse_2748" data-name="Ellipse 2748" cx="3.248" cy="3.248" r="3.248" transform="translate(-839.905 848.016)"/>
      <circle id="Ellipse_2749" data-name="Ellipse 2749" cx="3.248" cy="3.248" r="3.248" transform="translate(-805.641 848.016)"/>
      <circle id="Ellipse_2750" data-name="Ellipse 2750" cx="3.248" cy="3.248" r="3.248" transform="translate(-1799.28 876.779)"/>
      <circle id="Ellipse_2751" data-name="Ellipse 2751" cx="3.248" cy="3.248" r="3.248" transform="translate(-1765.016 876.779)"/>
      <circle id="Ellipse_2752" data-name="Ellipse 2752" cx="3.248" cy="3.248" r="3.248" transform="translate(-1730.753 876.779)"/>
      <circle id="Ellipse_2753" data-name="Ellipse 2753" cx="3.248" cy="3.248" r="3.248" transform="translate(-1696.49 876.779)"/>
      <circle id="Ellipse_2754" data-name="Ellipse 2754" cx="3.248" cy="3.248" r="3.248" transform="translate(-1662.226 876.779)"/>
      <circle id="Ellipse_2755" data-name="Ellipse 2755" cx="3.248" cy="3.248" r="3.248" transform="translate(-1627.963 876.779)"/>
      <circle id="Ellipse_2756" data-name="Ellipse 2756" cx="3.248" cy="3.248" r="3.248" transform="translate(-1593.699 876.779)"/>
      <circle id="Ellipse_2757" data-name="Ellipse 2757" cx="3.248" cy="3.248" r="3.248" transform="translate(-1559.436 876.779)"/>
      <circle id="Ellipse_2758" data-name="Ellipse 2758" cx="3.248" cy="3.248" r="3.248" transform="translate(-1525.172 876.779)"/>
      <circle id="Ellipse_2759" data-name="Ellipse 2759" cx="3.248" cy="3.248" r="3.248" transform="translate(-1490.909 876.779)"/>
      <circle id="Ellipse_2760" data-name="Ellipse 2760" cx="3.248" cy="3.248" r="3.248" transform="translate(-1456.646 876.779)"/>
      <circle id="Ellipse_2761" data-name="Ellipse 2761" cx="3.248" cy="3.248" r="3.248" transform="translate(-1422.382 876.779)"/>
      <circle id="Ellipse_2762" data-name="Ellipse 2762" cx="3.248" cy="3.248" r="3.248" transform="translate(-1388.119 876.779)"/>
      <circle id="Ellipse_2763" data-name="Ellipse 2763" cx="3.248" cy="3.248" r="3.248" transform="translate(-1353.855 876.779)"/>
      <circle id="Ellipse_2764" data-name="Ellipse 2764" cx="3.248" cy="3.248" r="3.248" transform="translate(-1319.592 876.779)"/>
      <circle id="Ellipse_2765" data-name="Ellipse 2765" cx="3.248" cy="3.248" r="3.248" transform="translate(-1285.329 876.779)"/>
      <circle id="Ellipse_2766" data-name="Ellipse 2766" cx="3.248" cy="3.248" r="3.248" transform="translate(-1251.065 876.779)"/>
      <circle id="Ellipse_2767" data-name="Ellipse 2767" cx="3.248" cy="3.248" r="3.248" transform="translate(-1216.802 876.779)"/>
      <circle id="Ellipse_2768" data-name="Ellipse 2768" cx="3.248" cy="3.248" r="3.248" transform="translate(-1182.538 876.779)"/>
      <circle id="Ellipse_2769" data-name="Ellipse 2769" cx="3.248" cy="3.248" r="3.248" transform="translate(-1148.275 876.779)"/>
      <circle id="Ellipse_2770" data-name="Ellipse 2770" cx="3.248" cy="3.248" r="3.248" transform="translate(-1114.012 876.779)"/>
      <circle id="Ellipse_2771" data-name="Ellipse 2771" cx="3.248" cy="3.248" r="3.248" transform="translate(-1079.748 876.779)"/>
      <circle id="Ellipse_2772" data-name="Ellipse 2772" cx="3.248" cy="3.248" r="3.248" transform="translate(-1045.485 876.779)"/>
      <circle id="Ellipse_2773" data-name="Ellipse 2773" cx="3.248" cy="3.248" r="3.248" transform="translate(-1011.221 876.779)"/>
      <circle id="Ellipse_2774" data-name="Ellipse 2774" cx="3.248" cy="3.248" r="3.248" transform="translate(-976.958 876.779)"/>
      <circle id="Ellipse_2775" data-name="Ellipse 2775" cx="3.248" cy="3.248" r="3.248" transform="translate(-942.695 876.779)"/>
      <circle id="Ellipse_2776" data-name="Ellipse 2776" cx="3.248" cy="3.248" r="3.248" transform="translate(-908.431 876.779)"/>
      <circle id="Ellipse_2777" data-name="Ellipse 2777" cx="3.248" cy="3.248" r="3.248" transform="translate(-874.168 876.779)"/>
      <circle id="Ellipse_2778" data-name="Ellipse 2778" cx="3.248" cy="3.248" r="3.248" transform="translate(-839.905 876.779)"/>
      <circle id="Ellipse_2779" data-name="Ellipse 2779" cx="3.248" cy="3.248" r="3.248" transform="translate(-805.641 876.779)"/>
      <circle id="Ellipse_2780" data-name="Ellipse 2780" cx="3.248" cy="3.248" r="3.248" transform="translate(-1799.28 905.543)"/>
      <circle id="Ellipse_2781" data-name="Ellipse 2781" cx="3.248" cy="3.248" r="3.248" transform="translate(-1765.016 905.543)"/>
      <circle id="Ellipse_2782" data-name="Ellipse 2782" cx="3.248" cy="3.248" r="3.248" transform="translate(-1730.753 905.543)"/>
      <circle id="Ellipse_2783" data-name="Ellipse 2783" cx="3.248" cy="3.248" r="3.248" transform="translate(-1696.49 905.543)"/>
      <circle id="Ellipse_2784" data-name="Ellipse 2784" cx="3.248" cy="3.248" r="3.248" transform="translate(-1662.226 905.543)"/>
      <circle id="Ellipse_2785" data-name="Ellipse 2785" cx="3.248" cy="3.248" r="3.248" transform="translate(-1627.963 905.543)"/>
      <circle id="Ellipse_2786" data-name="Ellipse 2786" cx="3.248" cy="3.248" r="3.248" transform="translate(-1593.699 905.543)"/>
      <circle id="Ellipse_2787" data-name="Ellipse 2787" cx="3.248" cy="3.248" r="3.248" transform="translate(-1559.436 905.543)"/>
      <circle id="Ellipse_2788" data-name="Ellipse 2788" cx="3.248" cy="3.248" r="3.248" transform="translate(-1525.172 905.543)"/>
      <circle id="Ellipse_2789" data-name="Ellipse 2789" cx="3.248" cy="3.248" r="3.248" transform="translate(-1490.909 905.543)"/>
      <circle id="Ellipse_2790" data-name="Ellipse 2790" cx="3.248" cy="3.248" r="3.248" transform="translate(-1456.646 905.543)"/>
      <circle id="Ellipse_2791" data-name="Ellipse 2791" cx="3.248" cy="3.248" r="3.248" transform="translate(-1422.382 905.543)"/>
      <circle id="Ellipse_2792" data-name="Ellipse 2792" cx="3.248" cy="3.248" r="3.248" transform="translate(-1388.119 905.543)"/>
      <circle id="Ellipse_2793" data-name="Ellipse 2793" cx="3.248" cy="3.248" r="3.248" transform="translate(-1353.855 905.543)"/>
      <circle id="Ellipse_2794" data-name="Ellipse 2794" cx="3.248" cy="3.248" r="3.248" transform="translate(-1319.592 905.543)"/>
      <circle id="Ellipse_2795" data-name="Ellipse 2795" cx="3.248" cy="3.248" r="3.248" transform="translate(-1285.329 905.543)"/>
      <circle id="Ellipse_2796" data-name="Ellipse 2796" cx="3.248" cy="3.248" r="3.248" transform="translate(-1251.065 905.543)"/>
      <circle id="Ellipse_2797" data-name="Ellipse 2797" cx="3.248" cy="3.248" r="3.248" transform="translate(-1216.802 905.543)"/>
      <circle id="Ellipse_2798" data-name="Ellipse 2798" cx="3.248" cy="3.248" r="3.248" transform="translate(-1182.538 905.543)"/>
      <circle id="Ellipse_2799" data-name="Ellipse 2799" cx="3.248" cy="3.248" r="3.248" transform="translate(-1148.275 905.543)"/>
      <circle id="Ellipse_2800" data-name="Ellipse 2800" cx="3.248" cy="3.248" r="3.248" transform="translate(-1114.012 905.543)"/>
      <circle id="Ellipse_2801" data-name="Ellipse 2801" cx="3.248" cy="3.248" r="3.248" transform="translate(-1079.748 905.543)"/>
      <circle id="Ellipse_2802" data-name="Ellipse 2802" cx="3.248" cy="3.248" r="3.248" transform="translate(-1045.485 905.543)"/>
      <circle id="Ellipse_2803" data-name="Ellipse 2803" cx="3.248" cy="3.248" r="3.248" transform="translate(-1011.221 905.543)"/>
      <circle id="Ellipse_2804" data-name="Ellipse 2804" cx="3.248" cy="3.248" r="3.248" transform="translate(-976.958 905.543)"/>
      <circle id="Ellipse_2805" data-name="Ellipse 2805" cx="3.248" cy="3.248" r="3.248" transform="translate(-942.695 905.543)"/>
      <circle id="Ellipse_2806" data-name="Ellipse 2806" cx="3.248" cy="3.248" r="3.248" transform="translate(-908.431 905.543)"/>
      <circle id="Ellipse_2807" data-name="Ellipse 2807" cx="3.248" cy="3.248" r="3.248" transform="translate(-874.168 905.543)"/>
      <circle id="Ellipse_2808" data-name="Ellipse 2808" cx="3.248" cy="3.248" r="3.248" transform="translate(-839.905 905.543)"/>
      <circle id="Ellipse_2809" data-name="Ellipse 2809" cx="3.248" cy="3.248" r="3.248" transform="translate(-805.641 905.543)"/>
      <circle id="Ellipse_2810" data-name="Ellipse 2810" cx="3.248" cy="3.248" r="3.248" transform="translate(-1799.28 934.306)"/>
      <circle id="Ellipse_2811" data-name="Ellipse 2811" cx="3.248" cy="3.248" r="3.248" transform="translate(-1765.016 934.306)"/>
      <circle id="Ellipse_2812" data-name="Ellipse 2812" cx="3.248" cy="3.248" r="3.248" transform="translate(-1730.753 934.306)"/>
      <circle id="Ellipse_2813" data-name="Ellipse 2813" cx="3.248" cy="3.248" r="3.248" transform="translate(-1696.49 934.306)"/>
      <circle id="Ellipse_2814" data-name="Ellipse 2814" cx="3.248" cy="3.248" r="3.248" transform="translate(-1662.226 934.306)"/>
      <circle id="Ellipse_2815" data-name="Ellipse 2815" cx="3.248" cy="3.248" r="3.248" transform="translate(-1627.963 934.306)"/>
      <circle id="Ellipse_2816" data-name="Ellipse 2816" cx="3.248" cy="3.248" r="3.248" transform="translate(-1593.699 934.306)"/>
      <circle id="Ellipse_2817" data-name="Ellipse 2817" cx="3.248" cy="3.248" r="3.248" transform="translate(-1559.436 934.306)"/>
      <circle id="Ellipse_2818" data-name="Ellipse 2818" cx="3.248" cy="3.248" r="3.248" transform="translate(-1525.172 934.306)"/>
      <circle id="Ellipse_2819" data-name="Ellipse 2819" cx="3.248" cy="3.248" r="3.248" transform="translate(-1490.909 934.306)"/>
      <circle id="Ellipse_2820" data-name="Ellipse 2820" cx="3.248" cy="3.248" r="3.248" transform="translate(-1456.646 934.306)"/>
      <circle id="Ellipse_2821" data-name="Ellipse 2821" cx="3.248" cy="3.248" r="3.248" transform="translate(-1422.382 934.306)"/>
      <circle id="Ellipse_2822" data-name="Ellipse 2822" cx="3.248" cy="3.248" r="3.248" transform="translate(-1388.119 934.306)"/>
      <circle id="Ellipse_2823" data-name="Ellipse 2823" cx="3.248" cy="3.248" r="3.248" transform="translate(-1353.855 934.306)"/>
      <circle id="Ellipse_2824" data-name="Ellipse 2824" cx="3.248" cy="3.248" r="3.248" transform="translate(-1319.592 934.306)"/>
      <circle id="Ellipse_2825" data-name="Ellipse 2825" cx="3.248" cy="3.248" r="3.248" transform="translate(-1285.329 934.306)"/>
      <circle id="Ellipse_2826" data-name="Ellipse 2826" cx="3.248" cy="3.248" r="3.248" transform="translate(-1251.065 934.306)"/>
      <circle id="Ellipse_2827" data-name="Ellipse 2827" cx="3.248" cy="3.248" r="3.248" transform="translate(-1216.802 934.306)"/>
      <circle id="Ellipse_2828" data-name="Ellipse 2828" cx="3.248" cy="3.248" r="3.248" transform="translate(-1182.538 934.306)"/>
      <circle id="Ellipse_2829" data-name="Ellipse 2829" cx="3.248" cy="3.248" r="3.248" transform="translate(-1148.275 934.306)"/>
      <circle id="Ellipse_2830" data-name="Ellipse 2830" cx="3.248" cy="3.248" r="3.248" transform="translate(-1114.012 934.306)"/>
      <circle id="Ellipse_2831" data-name="Ellipse 2831" cx="3.248" cy="3.248" r="3.248" transform="translate(-1079.748 934.306)"/>
      <circle id="Ellipse_2832" data-name="Ellipse 2832" cx="3.248" cy="3.248" r="3.248" transform="translate(-1045.485 934.306)"/>
      <circle id="Ellipse_2833" data-name="Ellipse 2833" cx="3.248" cy="3.248" r="3.248" transform="translate(-1011.221 934.306)"/>
      <circle id="Ellipse_2834" data-name="Ellipse 2834" cx="3.248" cy="3.248" r="3.248" transform="translate(-976.958 934.306)"/>
      <circle id="Ellipse_2835" data-name="Ellipse 2835" cx="3.248" cy="3.248" r="3.248" transform="translate(-942.695 934.306)"/>
      <circle id="Ellipse_2836" data-name="Ellipse 2836" cx="3.248" cy="3.248" r="3.248" transform="translate(-908.431 934.306)"/>
      <circle id="Ellipse_2837" data-name="Ellipse 2837" cx="3.248" cy="3.248" r="3.248" transform="translate(-874.168 934.306)"/>
      <circle id="Ellipse_2838" data-name="Ellipse 2838" cx="3.248" cy="3.248" r="3.248" transform="translate(-839.905 934.306)"/>
      <circle id="Ellipse_2839" data-name="Ellipse 2839" cx="3.248" cy="3.248" r="3.248" transform="translate(-805.641 934.306)"/>
      <circle id="Ellipse_2840" data-name="Ellipse 2840" cx="3.248" cy="3.248" r="3.248" transform="translate(-1799.28 963.07)"/>
      <circle id="Ellipse_2841" data-name="Ellipse 2841" cx="3.248" cy="3.248" r="3.248" transform="translate(-1765.016 963.07)"/>
      <circle id="Ellipse_2842" data-name="Ellipse 2842" cx="3.248" cy="3.248" r="3.248" transform="translate(-1730.753 963.07)"/>
      <circle id="Ellipse_2843" data-name="Ellipse 2843" cx="3.248" cy="3.248" r="3.248" transform="translate(-1696.49 963.07)"/>
      <circle id="Ellipse_2844" data-name="Ellipse 2844" cx="3.248" cy="3.248" r="3.248" transform="translate(-1662.226 963.07)"/>
      <circle id="Ellipse_2845" data-name="Ellipse 2845" cx="3.248" cy="3.248" r="3.248" transform="translate(-1627.963 963.07)"/>
      <circle id="Ellipse_2846" data-name="Ellipse 2846" cx="3.248" cy="3.248" r="3.248" transform="translate(-1593.699 963.07)"/>
      <circle id="Ellipse_2847" data-name="Ellipse 2847" cx="3.248" cy="3.248" r="3.248" transform="translate(-1559.436 963.07)"/>
      <circle id="Ellipse_2848" data-name="Ellipse 2848" cx="3.248" cy="3.248" r="3.248" transform="translate(-1525.172 963.07)"/>
      <circle id="Ellipse_2849" data-name="Ellipse 2849" cx="3.248" cy="3.248" r="3.248" transform="translate(-1490.909 963.07)"/>
      <circle id="Ellipse_2850" data-name="Ellipse 2850" cx="3.248" cy="3.248" r="3.248" transform="translate(-1456.646 963.07)"/>
      <circle id="Ellipse_2851" data-name="Ellipse 2851" cx="3.248" cy="3.248" r="3.248" transform="translate(-1422.382 963.07)"/>
      <circle id="Ellipse_2852" data-name="Ellipse 2852" cx="3.248" cy="3.248" r="3.248" transform="translate(-1388.119 963.07)"/>
      <circle id="Ellipse_2853" data-name="Ellipse 2853" cx="3.248" cy="3.248" r="3.248" transform="translate(-1353.855 963.07)"/>
      <circle id="Ellipse_2854" data-name="Ellipse 2854" cx="3.248" cy="3.248" r="3.248" transform="translate(-1319.592 963.07)"/>
      <circle id="Ellipse_2855" data-name="Ellipse 2855" cx="3.248" cy="3.248" r="3.248" transform="translate(-1285.329 963.07)"/>
      <circle id="Ellipse_2856" data-name="Ellipse 2856" cx="3.248" cy="3.248" r="3.248" transform="translate(-1251.065 963.07)"/>
      <circle id="Ellipse_2857" data-name="Ellipse 2857" cx="3.248" cy="3.248" r="3.248" transform="translate(-1216.802 963.07)"/>
      <circle id="Ellipse_2858" data-name="Ellipse 2858" cx="3.248" cy="3.248" r="3.248" transform="translate(-1182.538 963.07)"/>
      <circle id="Ellipse_2859" data-name="Ellipse 2859" cx="3.248" cy="3.248" r="3.248" transform="translate(-1148.275 963.07)"/>
      <circle id="Ellipse_2860" data-name="Ellipse 2860" cx="3.248" cy="3.248" r="3.248" transform="translate(-1114.012 963.07)"/>
      <circle id="Ellipse_2861" data-name="Ellipse 2861" cx="3.248" cy="3.248" r="3.248" transform="translate(-1079.748 963.07)"/>
      <circle id="Ellipse_2862" data-name="Ellipse 2862" cx="3.248" cy="3.248" r="3.248" transform="translate(-1045.485 963.07)"/>
      <circle id="Ellipse_2863" data-name="Ellipse 2863" cx="3.248" cy="3.248" r="3.248" transform="translate(-1011.221 963.07)"/>
      <circle id="Ellipse_2864" data-name="Ellipse 2864" cx="3.248" cy="3.248" r="3.248" transform="translate(-976.958 963.07)"/>
      <circle id="Ellipse_2865" data-name="Ellipse 2865" cx="3.248" cy="3.248" r="3.248" transform="translate(-942.695 963.07)"/>
      <circle id="Ellipse_2866" data-name="Ellipse 2866" cx="3.248" cy="3.248" r="3.248" transform="translate(-908.431 963.07)"/>
      <circle id="Ellipse_2867" data-name="Ellipse 2867" cx="3.248" cy="3.248" r="3.248" transform="translate(-874.168 963.07)"/>
      <circle id="Ellipse_2868" data-name="Ellipse 2868" cx="3.248" cy="3.248" r="3.248" transform="translate(-839.905 963.07)"/>
      <circle id="Ellipse_2869" data-name="Ellipse 2869" cx="3.248" cy="3.248" r="3.248" transform="translate(-805.641 963.07)"/>
      <circle id="Ellipse_2870" data-name="Ellipse 2870" cx="3.248" cy="3.248" r="3.248" transform="translate(-1799.28 991.833)"/>
      <circle id="Ellipse_2871" data-name="Ellipse 2871" cx="3.248" cy="3.248" r="3.248" transform="translate(-1765.016 991.833)"/>
      <circle id="Ellipse_2872" data-name="Ellipse 2872" cx="3.248" cy="3.248" r="3.248" transform="translate(-1730.753 991.833)"/>
      <circle id="Ellipse_2873" data-name="Ellipse 2873" cx="3.248" cy="3.248" r="3.248" transform="translate(-1696.49 991.833)"/>
      <circle id="Ellipse_2874" data-name="Ellipse 2874" cx="3.248" cy="3.248" r="3.248" transform="translate(-1662.226 991.833)"/>
      <circle id="Ellipse_2875" data-name="Ellipse 2875" cx="3.248" cy="3.248" r="3.248" transform="translate(-1627.963 991.833)"/>
      <circle id="Ellipse_2876" data-name="Ellipse 2876" cx="3.248" cy="3.248" r="3.248" transform="translate(-1593.699 991.833)"/>
      <circle id="Ellipse_2877" data-name="Ellipse 2877" cx="3.248" cy="3.248" r="3.248" transform="translate(-1559.436 991.833)"/>
      <circle id="Ellipse_2878" data-name="Ellipse 2878" cx="3.248" cy="3.248" r="3.248" transform="translate(-1525.172 991.833)"/>
      <circle id="Ellipse_2879" data-name="Ellipse 2879" cx="3.248" cy="3.248" r="3.248" transform="translate(-1490.909 991.833)"/>
      <circle id="Ellipse_2880" data-name="Ellipse 2880" cx="3.248" cy="3.248" r="3.248" transform="translate(-1456.646 991.833)"/>
      <circle id="Ellipse_2881" data-name="Ellipse 2881" cx="3.248" cy="3.248" r="3.248" transform="translate(-1422.382 991.833)"/>
      <circle id="Ellipse_2882" data-name="Ellipse 2882" cx="3.248" cy="3.248" r="3.248" transform="translate(-1388.119 991.833)"/>
      <circle id="Ellipse_2883" data-name="Ellipse 2883" cx="3.248" cy="3.248" r="3.248" transform="translate(-1353.855 991.833)"/>
      <circle id="Ellipse_2884" data-name="Ellipse 2884" cx="3.248" cy="3.248" r="3.248" transform="translate(-1319.592 991.833)"/>
      <circle id="Ellipse_2885" data-name="Ellipse 2885" cx="3.248" cy="3.248" r="3.248" transform="translate(-1285.329 991.833)"/>
      <circle id="Ellipse_2886" data-name="Ellipse 2886" cx="3.248" cy="3.248" r="3.248" transform="translate(-1251.065 991.833)"/>
      <circle id="Ellipse_2887" data-name="Ellipse 2887" cx="3.248" cy="3.248" r="3.248" transform="translate(-1216.802 991.833)"/>
      <circle id="Ellipse_2888" data-name="Ellipse 2888" cx="3.248" cy="3.248" r="3.248" transform="translate(-1182.538 991.833)"/>
      <circle id="Ellipse_2889" data-name="Ellipse 2889" cx="3.248" cy="3.248" r="3.248" transform="translate(-1148.275 991.833)"/>
      <circle id="Ellipse_2890" data-name="Ellipse 2890" cx="3.248" cy="3.248" r="3.248" transform="translate(-1114.012 991.833)"/>
      <circle id="Ellipse_2891" data-name="Ellipse 2891" cx="3.248" cy="3.248" r="3.248" transform="translate(-1079.748 991.833)"/>
      <circle id="Ellipse_2892" data-name="Ellipse 2892" cx="3.248" cy="3.248" r="3.248" transform="translate(-1045.485 991.833)"/>
      <circle id="Ellipse_2893" data-name="Ellipse 2893" cx="3.248" cy="3.248" r="3.248" transform="translate(-1011.221 991.833)"/>
      <circle id="Ellipse_2894" data-name="Ellipse 2894" cx="3.248" cy="3.248" r="3.248" transform="translate(-976.958 991.833)"/>
      <circle id="Ellipse_2895" data-name="Ellipse 2895" cx="3.248" cy="3.248" r="3.248" transform="translate(-942.695 991.833)"/>
      <circle id="Ellipse_2896" data-name="Ellipse 2896" cx="3.248" cy="3.248" r="3.248" transform="translate(-908.431 991.833)"/>
      <circle id="Ellipse_2897" data-name="Ellipse 2897" cx="3.248" cy="3.248" r="3.248" transform="translate(-874.168 991.833)"/>
      <circle id="Ellipse_2898" data-name="Ellipse 2898" cx="3.248" cy="3.248" r="3.248" transform="translate(-839.905 991.833)"/>
      <circle id="Ellipse_2899" data-name="Ellipse 2899" cx="3.248" cy="3.248" r="3.248" transform="translate(-805.641 991.833)"/>
      <circle id="Ellipse_2900" data-name="Ellipse 2900" cx="3.248" cy="3.248" r="3.248" transform="translate(-1799.28 1020.597)"/>
      <circle id="Ellipse_2901" data-name="Ellipse 2901" cx="3.248" cy="3.248" r="3.248" transform="translate(-1765.016 1020.597)"/>
      <circle id="Ellipse_2902" data-name="Ellipse 2902" cx="3.248" cy="3.248" r="3.248" transform="translate(-1730.753 1020.597)"/>
      <circle id="Ellipse_2903" data-name="Ellipse 2903" cx="3.248" cy="3.248" r="3.248" transform="translate(-1696.49 1020.597)"/>
      <circle id="Ellipse_2904" data-name="Ellipse 2904" cx="3.248" cy="3.248" r="3.248" transform="translate(-1662.226 1020.597)"/>
      <circle id="Ellipse_2905" data-name="Ellipse 2905" cx="3.248" cy="3.248" r="3.248" transform="translate(-1627.963 1020.597)"/>
      <circle id="Ellipse_2906" data-name="Ellipse 2906" cx="3.248" cy="3.248" r="3.248" transform="translate(-1593.699 1020.597)"/>
      <circle id="Ellipse_2907" data-name="Ellipse 2907" cx="3.248" cy="3.248" r="3.248" transform="translate(-1559.436 1020.597)"/>
      <circle id="Ellipse_2908" data-name="Ellipse 2908" cx="3.248" cy="3.248" r="3.248" transform="translate(-1525.172 1020.597)"/>
      <circle id="Ellipse_2909" data-name="Ellipse 2909" cx="3.248" cy="3.248" r="3.248" transform="translate(-1490.909 1020.597)"/>
      <circle id="Ellipse_2910" data-name="Ellipse 2910" cx="3.248" cy="3.248" r="3.248" transform="translate(-1456.646 1020.597)"/>
      <circle id="Ellipse_2911" data-name="Ellipse 2911" cx="3.248" cy="3.248" r="3.248" transform="translate(-1422.382 1020.597)"/>
      <circle id="Ellipse_2912" data-name="Ellipse 2912" cx="3.248" cy="3.248" r="3.248" transform="translate(-1388.119 1020.597)"/>
      <circle id="Ellipse_2913" data-name="Ellipse 2913" cx="3.248" cy="3.248" r="3.248" transform="translate(-1353.855 1020.597)"/>
      <circle id="Ellipse_2914" data-name="Ellipse 2914" cx="3.248" cy="3.248" r="3.248" transform="translate(-1319.592 1020.597)"/>
      <circle id="Ellipse_2915" data-name="Ellipse 2915" cx="3.248" cy="3.248" r="3.248" transform="translate(-1285.329 1020.597)"/>
      <circle id="Ellipse_2916" data-name="Ellipse 2916" cx="3.248" cy="3.248" r="3.248" transform="translate(-1251.065 1020.597)"/>
      <circle id="Ellipse_2917" data-name="Ellipse 2917" cx="3.248" cy="3.248" r="3.248" transform="translate(-1216.802 1020.597)"/>
      <circle id="Ellipse_2918" data-name="Ellipse 2918" cx="3.248" cy="3.248" r="3.248" transform="translate(-1182.538 1020.597)"/>
      <circle id="Ellipse_2919" data-name="Ellipse 2919" cx="3.248" cy="3.248" r="3.248" transform="translate(-1148.275 1020.597)"/>
      <circle id="Ellipse_2920" data-name="Ellipse 2920" cx="3.248" cy="3.248" r="3.248" transform="translate(-1114.012 1020.597)"/>
      <circle id="Ellipse_2921" data-name="Ellipse 2921" cx="3.248" cy="3.248" r="3.248" transform="translate(-1079.748 1020.597)"/>
      <circle id="Ellipse_2922" data-name="Ellipse 2922" cx="3.248" cy="3.248" r="3.248" transform="translate(-1045.485 1020.597)"/>
      <circle id="Ellipse_2923" data-name="Ellipse 2923" cx="3.248" cy="3.248" r="3.248" transform="translate(-1011.221 1020.597)"/>
      <circle id="Ellipse_2924" data-name="Ellipse 2924" cx="3.248" cy="3.248" r="3.248" transform="translate(-976.958 1020.597)"/>
      <circle id="Ellipse_2925" data-name="Ellipse 2925" cx="3.248" cy="3.248" r="3.248" transform="translate(-942.695 1020.597)"/>
      <circle id="Ellipse_2926" data-name="Ellipse 2926" cx="3.248" cy="3.248" r="3.248" transform="translate(-908.431 1020.597)"/>
      <circle id="Ellipse_2927" data-name="Ellipse 2927" cx="3.248" cy="3.248" r="3.248" transform="translate(-874.168 1020.597)"/>
      <circle id="Ellipse_2928" data-name="Ellipse 2928" cx="3.248" cy="3.248" r="3.248" transform="translate(-839.905 1020.597)"/>
      <circle id="Ellipse_2929" data-name="Ellipse 2929" cx="3.248" cy="3.248" r="3.248" transform="translate(-805.641 1020.597)"/>
      <circle id="Ellipse_2930" data-name="Ellipse 2930" cx="3.248" cy="3.248" r="3.248" transform="translate(-1799.28 1049.36)"/>
      <circle id="Ellipse_2931" data-name="Ellipse 2931" cx="3.248" cy="3.248" r="3.248" transform="translate(-1765.016 1049.36)"/>
      <circle id="Ellipse_2932" data-name="Ellipse 2932" cx="3.248" cy="3.248" r="3.248" transform="translate(-1730.753 1049.36)"/>
      <circle id="Ellipse_2933" data-name="Ellipse 2933" cx="3.248" cy="3.248" r="3.248" transform="translate(-1696.49 1049.36)"/>
      <circle id="Ellipse_2934" data-name="Ellipse 2934" cx="3.248" cy="3.248" r="3.248" transform="translate(-1662.226 1049.36)"/>
      <circle id="Ellipse_2935" data-name="Ellipse 2935" cx="3.248" cy="3.248" r="3.248" transform="translate(-1627.963 1049.36)"/>
      <circle id="Ellipse_2936" data-name="Ellipse 2936" cx="3.248" cy="3.248" r="3.248" transform="translate(-1593.699 1049.36)"/>
      <circle id="Ellipse_2937" data-name="Ellipse 2937" cx="3.248" cy="3.248" r="3.248" transform="translate(-1559.436 1049.36)"/>
      <circle id="Ellipse_2938" data-name="Ellipse 2938" cx="3.248" cy="3.248" r="3.248" transform="translate(-1525.172 1049.36)"/>
      <circle id="Ellipse_2939" data-name="Ellipse 2939" cx="3.248" cy="3.248" r="3.248" transform="translate(-1490.909 1049.36)"/>
      <circle id="Ellipse_2940" data-name="Ellipse 2940" cx="3.248" cy="3.248" r="3.248" transform="translate(-1456.646 1049.36)"/>
      <circle id="Ellipse_2941" data-name="Ellipse 2941" cx="3.248" cy="3.248" r="3.248" transform="translate(-1422.382 1049.36)"/>
      <circle id="Ellipse_2942" data-name="Ellipse 2942" cx="3.248" cy="3.248" r="3.248" transform="translate(-1388.119 1049.36)"/>
      <circle id="Ellipse_2943" data-name="Ellipse 2943" cx="3.248" cy="3.248" r="3.248" transform="translate(-1353.855 1049.36)"/>
      <circle id="Ellipse_2944" data-name="Ellipse 2944" cx="3.248" cy="3.248" r="3.248" transform="translate(-1319.592 1049.36)"/>
      <circle id="Ellipse_2945" data-name="Ellipse 2945" cx="3.248" cy="3.248" r="3.248" transform="translate(-1285.329 1049.36)"/>
      <circle id="Ellipse_2946" data-name="Ellipse 2946" cx="3.248" cy="3.248" r="3.248" transform="translate(-1251.065 1049.36)"/>
      <circle id="Ellipse_2947" data-name="Ellipse 2947" cx="3.248" cy="3.248" r="3.248" transform="translate(-1216.802 1049.36)"/>
      <circle id="Ellipse_2948" data-name="Ellipse 2948" cx="3.248" cy="3.248" r="3.248" transform="translate(-1182.538 1049.36)"/>
      <circle id="Ellipse_2949" data-name="Ellipse 2949" cx="3.248" cy="3.248" r="3.248" transform="translate(-1148.275 1049.36)"/>
      <circle id="Ellipse_2950" data-name="Ellipse 2950" cx="3.248" cy="3.248" r="3.248" transform="translate(-1114.012 1049.36)"/>
      <circle id="Ellipse_2951" data-name="Ellipse 2951" cx="3.248" cy="3.248" r="3.248" transform="translate(-1079.748 1049.36)"/>
      <circle id="Ellipse_2952" data-name="Ellipse 2952" cx="3.248" cy="3.248" r="3.248" transform="translate(-1045.485 1049.36)"/>
      <circle id="Ellipse_2953" data-name="Ellipse 2953" cx="3.248" cy="3.248" r="3.248" transform="translate(-1011.221 1049.36)"/>
      <circle id="Ellipse_2954" data-name="Ellipse 2954" cx="3.248" cy="3.248" r="3.248" transform="translate(-976.958 1049.36)"/>
      <circle id="Ellipse_2955" data-name="Ellipse 2955" cx="3.248" cy="3.248" r="3.248" transform="translate(-942.695 1049.36)"/>
      <circle id="Ellipse_2956" data-name="Ellipse 2956" cx="3.248" cy="3.248" r="3.248" transform="translate(-908.431 1049.36)"/>
      <circle id="Ellipse_2957" data-name="Ellipse 2957" cx="3.248" cy="3.248" r="3.248" transform="translate(-874.168 1049.36)"/>
      <circle id="Ellipse_2958" data-name="Ellipse 2958" cx="3.248" cy="3.248" r="3.248" transform="translate(-839.905 1049.36)"/>
      <circle id="Ellipse_2959" data-name="Ellipse 2959" cx="3.248" cy="3.248" r="3.248" transform="translate(-805.641 1049.36)"/>
      <circle id="Ellipse_2960" data-name="Ellipse 2960" cx="3.248" cy="3.248" r="3.248" transform="translate(-1799.28 1078.124)"/>
      <circle id="Ellipse_2961" data-name="Ellipse 2961" cx="3.248" cy="3.248" r="3.248" transform="translate(-1765.016 1078.124)"/>
      <circle id="Ellipse_2962" data-name="Ellipse 2962" cx="3.248" cy="3.248" r="3.248" transform="translate(-1730.753 1078.124)"/>
      <circle id="Ellipse_2963" data-name="Ellipse 2963" cx="3.248" cy="3.248" r="3.248" transform="translate(-1696.49 1078.124)"/>
      <circle id="Ellipse_2964" data-name="Ellipse 2964" cx="3.248" cy="3.248" r="3.248" transform="translate(-1662.226 1078.124)"/>
      <circle id="Ellipse_2965" data-name="Ellipse 2965" cx="3.248" cy="3.248" r="3.248" transform="translate(-1627.963 1078.124)"/>
      <circle id="Ellipse_2966" data-name="Ellipse 2966" cx="3.248" cy="3.248" r="3.248" transform="translate(-1593.699 1078.124)"/>
      <circle id="Ellipse_2967" data-name="Ellipse 2967" cx="3.248" cy="3.248" r="3.248" transform="translate(-1559.436 1078.124)"/>
      <circle id="Ellipse_2968" data-name="Ellipse 2968" cx="3.248" cy="3.248" r="3.248" transform="translate(-1525.172 1078.124)"/>
      <circle id="Ellipse_2969" data-name="Ellipse 2969" cx="3.248" cy="3.248" r="3.248" transform="translate(-1490.909 1078.124)"/>
      <circle id="Ellipse_2970" data-name="Ellipse 2970" cx="3.248" cy="3.248" r="3.248" transform="translate(-1456.646 1078.124)"/>
      <circle id="Ellipse_2971" data-name="Ellipse 2971" cx="3.248" cy="3.248" r="3.248" transform="translate(-1422.382 1078.124)"/>
      <circle id="Ellipse_2972" data-name="Ellipse 2972" cx="3.248" cy="3.248" r="3.248" transform="translate(-1388.119 1078.124)"/>
      <circle id="Ellipse_2973" data-name="Ellipse 2973" cx="3.248" cy="3.248" r="3.248" transform="translate(-1353.855 1078.124)"/>
      <circle id="Ellipse_2974" data-name="Ellipse 2974" cx="3.248" cy="3.248" r="3.248" transform="translate(-1319.592 1078.124)"/>
      <circle id="Ellipse_2975" data-name="Ellipse 2975" cx="3.248" cy="3.248" r="3.248" transform="translate(-1285.329 1078.124)"/>
      <circle id="Ellipse_2976" data-name="Ellipse 2976" cx="3.248" cy="3.248" r="3.248" transform="translate(-1251.065 1078.124)"/>
      <circle id="Ellipse_2977" data-name="Ellipse 2977" cx="3.248" cy="3.248" r="3.248" transform="translate(-1216.802 1078.124)"/>
      <circle id="Ellipse_2978" data-name="Ellipse 2978" cx="3.248" cy="3.248" r="3.248" transform="translate(-1182.538 1078.124)"/>
      <circle id="Ellipse_2979" data-name="Ellipse 2979" cx="3.248" cy="3.248" r="3.248" transform="translate(-1148.275 1078.124)"/>
      <circle id="Ellipse_2980" data-name="Ellipse 2980" cx="3.248" cy="3.248" r="3.248" transform="translate(-1114.012 1078.124)"/>
      <circle id="Ellipse_2981" data-name="Ellipse 2981" cx="3.248" cy="3.248" r="3.248" transform="translate(-1079.748 1078.124)"/>
      <circle id="Ellipse_2982" data-name="Ellipse 2982" cx="3.248" cy="3.248" r="3.248" transform="translate(-1045.485 1078.124)"/>
      <circle id="Ellipse_2983" data-name="Ellipse 2983" cx="3.248" cy="3.248" r="3.248" transform="translate(-1011.221 1078.124)"/>
      <circle id="Ellipse_2984" data-name="Ellipse 2984" cx="3.248" cy="3.248" r="3.248" transform="translate(-976.958 1078.124)"/>
      <circle id="Ellipse_2985" data-name="Ellipse 2985" cx="3.248" cy="3.248" r="3.248" transform="translate(-942.695 1078.124)"/>
      <circle id="Ellipse_2986" data-name="Ellipse 2986" cx="3.248" cy="3.248" r="3.248" transform="translate(-908.431 1078.124)"/>
      <circle id="Ellipse_2987" data-name="Ellipse 2987" cx="3.248" cy="3.248" r="3.248" transform="translate(-874.168 1078.124)"/>
      <circle id="Ellipse_2988" data-name="Ellipse 2988" cx="3.248" cy="3.248" r="3.248" transform="translate(-839.905 1078.124)"/>
      <circle id="Ellipse_2989" data-name="Ellipse 2989" cx="3.248" cy="3.248" r="3.248" transform="translate(-805.641 1078.124)"/>
      <circle id="Ellipse_2990" data-name="Ellipse 2990" cx="3.248" cy="3.248" r="3.248" transform="translate(-1799.28 1106.887)"/>
      <circle id="Ellipse_2991" data-name="Ellipse 2991" cx="3.248" cy="3.248" r="3.248" transform="translate(-1765.016 1106.887)"/>
      <circle id="Ellipse_2992" data-name="Ellipse 2992" cx="3.248" cy="3.248" r="3.248" transform="translate(-1730.753 1106.887)"/>
      <circle id="Ellipse_2993" data-name="Ellipse 2993" cx="3.248" cy="3.248" r="3.248" transform="translate(-1696.49 1106.887)"/>
      <circle id="Ellipse_2994" data-name="Ellipse 2994" cx="3.248" cy="3.248" r="3.248" transform="translate(-1662.226 1106.887)"/>
      <circle id="Ellipse_2995" data-name="Ellipse 2995" cx="3.248" cy="3.248" r="3.248" transform="translate(-1627.963 1106.887)"/>
      <circle id="Ellipse_2996" data-name="Ellipse 2996" cx="3.248" cy="3.248" r="3.248" transform="translate(-1593.699 1106.887)"/>
      <circle id="Ellipse_2997" data-name="Ellipse 2997" cx="3.248" cy="3.248" r="3.248" transform="translate(-1559.436 1106.887)"/>
      <circle id="Ellipse_2998" data-name="Ellipse 2998" cx="3.248" cy="3.248" r="3.248" transform="translate(-1525.172 1106.887)"/>
      <circle id="Ellipse_2999" data-name="Ellipse 2999" cx="3.248" cy="3.248" r="3.248" transform="translate(-1490.909 1106.887)"/>
      <circle id="Ellipse_3000" data-name="Ellipse 3000" cx="3.248" cy="3.248" r="3.248" transform="translate(-1456.646 1106.887)"/>
      <circle id="Ellipse_3001" data-name="Ellipse 3001" cx="3.248" cy="3.248" r="3.248" transform="translate(-1422.382 1106.887)"/>
      <circle id="Ellipse_3002" data-name="Ellipse 3002" cx="3.248" cy="3.248" r="3.248" transform="translate(-1388.119 1106.887)"/>
      <circle id="Ellipse_3003" data-name="Ellipse 3003" cx="3.248" cy="3.248" r="3.248" transform="translate(-1353.855 1106.887)"/>
      <circle id="Ellipse_3004" data-name="Ellipse 3004" cx="3.248" cy="3.248" r="3.248" transform="translate(-1319.592 1106.887)"/>
      <circle id="Ellipse_3005" data-name="Ellipse 3005" cx="3.248" cy="3.248" r="3.248" transform="translate(-1285.329 1106.887)"/>
      <circle id="Ellipse_3006" data-name="Ellipse 3006" cx="3.248" cy="3.248" r="3.248" transform="translate(-1251.065 1106.887)"/>
      <circle id="Ellipse_3007" data-name="Ellipse 3007" cx="3.248" cy="3.248" r="3.248" transform="translate(-1216.802 1106.887)"/>
      <circle id="Ellipse_3008" data-name="Ellipse 3008" cx="3.248" cy="3.248" r="3.248" transform="translate(-1182.538 1106.887)"/>
      <circle id="Ellipse_3009" data-name="Ellipse 3009" cx="3.248" cy="3.248" r="3.248" transform="translate(-1148.275 1106.887)"/>
      <circle id="Ellipse_3010" data-name="Ellipse 3010" cx="3.248" cy="3.248" r="3.248" transform="translate(-1114.012 1106.887)"/>
      <circle id="Ellipse_3011" data-name="Ellipse 3011" cx="3.248" cy="3.248" r="3.248" transform="translate(-1079.748 1106.887)"/>
      <circle id="Ellipse_3012" data-name="Ellipse 3012" cx="3.248" cy="3.248" r="3.248" transform="translate(-1045.485 1106.887)"/>
      <circle id="Ellipse_3013" data-name="Ellipse 3013" cx="3.248" cy="3.248" r="3.248" transform="translate(-1011.221 1106.887)"/>
      <circle id="Ellipse_3014" data-name="Ellipse 3014" cx="3.248" cy="3.248" r="3.248" transform="translate(-976.958 1106.887)"/>
      <circle id="Ellipse_3015" data-name="Ellipse 3015" cx="3.248" cy="3.248" r="3.248" transform="translate(-942.695 1106.887)"/>
      <circle id="Ellipse_3016" data-name="Ellipse 3016" cx="3.248" cy="3.248" r="3.248" transform="translate(-908.431 1106.887)"/>
      <circle id="Ellipse_3017" data-name="Ellipse 3017" cx="3.248" cy="3.248" r="3.248" transform="translate(-874.168 1106.887)"/>
      <circle id="Ellipse_3018" data-name="Ellipse 3018" cx="3.248" cy="3.248" r="3.248" transform="translate(-839.905 1106.887)"/>
      <circle id="Ellipse_3019" data-name="Ellipse 3019" cx="3.248" cy="3.248" r="3.248" transform="translate(-805.641 1106.887)"/>
    </g>
  </g>
</svg>
